<?xml version="1.0" encoding="utf-8"?>
<!-- Generator: Adobe Illustrator 25.3.1, SVG Export Plug-In . SVG Version: 6.00 Build 0)  -->
<svg version="1.1" id="Calque_1" xmlns="http://www.w3.org/2000/svg" xmlns:xlink="http://www.w3.org/1999/xlink" x="0px" y="0px"
	 viewBox="0 0 841.9 1190.6" style="enable-background:new 0 0 841.9 1190.6;" xml:space="preserve">
<g>
	<path d="M411,417.1c5.6,10,8.3,20.9,9,32.2c2,32-13.7,54.8-38,73.1c-21.8,16.4-43.4,33.1-61.8,53.5c-10.5,11.6-19.4,24.3-26.5,38.3
		c5.8-16.8,15.1-31.7,26.1-45.5c14.2-17.8,31.3-32.6,48.7-47.1c17-14.1,31.2-30.3,39.9-51c6.8-16.3,7.6-32.8,3.5-49.8
		C411.6,419.6,411.4,418.3,411,417.1L411,417.1z"/>
	<path d="M186.2,370c5.9-7.2,14.3-10.1,22.8-12.1c13.7-3.1,26.8,0.2,39.4,5.4c5.2,2.1,10.2,4.9,15.7,7.5
		c15.4-16.1,32.7-28.7,56.6-29.8c0.1,2.1,0.2,3.6,0.3,5.5c-23.2,4.3-39,19.1-53.6,35.9c-6.7-3.8-13.2-7.9-20-11.3
		c-16-7.8-32.7-11.4-50.3-5.9C193.3,366.6,189.8,368.4,186.2,370L186.2,370z"/>
	<path d="M167.1,510c10.7,10,23.3,16.1,37.8,18.8c8.8,1.6,17.5,4.2,25.9,7.1c18,6.3,34.1,15.8,47.1,29.9c6.1,6.6,11.1,14,14.2,23.6
		c-1.3-0.8-2.1-1.1-2.5-1.6c-15.2-22.4-37.1-35-61.8-44.3c-15.5-5.8-30.7-12.8-45.6-19.9C176.1,520.8,169.9,517,167.1,510L167.1,510
		z"/>
	<path d="M307.5,528c0.7,1.5,1.3,2.7,2,4.3c-1.7,0.7-2.9,1.1-5.3,2c2.6,0.6,4,0.9,6.3,1.5c-0.9,1.6-1.6,2.9-2.3,4.1
		c0.5,1.6,1.1,3.5,1.8,5.5c1.8,0.4,3.7,0.8,6.3,1.3c0,3.7,0.5,7.4-0.2,10.8c-0.3,1.7-2.8,3-4.3,4.5c-1.2-1.7-3.2-3.2-3.6-5
		c-0.6-3-0.2-6.2-0.2-9.5c-3.1-0.5-5.6-0.9-8.6-1.3c0.1-2.3,0.2-4.2,0.3-6.1c1.8-0.6,3.3-1.2,4.8-1.7c0-0.2,0-0.4-0.1-0.6
		c-2.8,0-5.6,0-9,0c-0.1-2.3-0.3-4.7-0.5-7.6c3.4,0,6.2,0,9.1,0c0.1-0.2,0.1-0.4,0.2-0.7c-2-0.7-4.1-1.5-6.6-2.4
		c0-5.6-0.2-11.4,0.1-17.1c0.2-3.3,3.1-4.6,5.8-4.1c1.9,0.3,4.8,2.2,5,3.6c0.7,5.6,0.5,11.2,0.4,16.9
		C308.8,527,307.8,527.6,307.5,528z"/>
	<path d="M243,488.7c-0.1-5-5.2-2.3-7.6-5.3c0-4.5-0.2-9.8,0.1-15c0.2-3.7,2.7-5.6,6.5-5.5c3.9,0.1,5.2,2.6,5.2,5.9
		c-0.1,5.3-0.5,10.5-0.7,15.8c0,1.5,0.5,3,1,5.6c-1.8-0.5-3-0.8-4.2-1.1L243,488.7z"/>
	<path d="M207,491.3c2.3-1.1,3.9-1.9,6.5-3.1c2,3,3.9,5.9,5.5,8.4c2.3,0,4.9,0,8,0c0,1.9,0,3.5,0,5.7c-2.8,0.3-5.5,0.6-8.5,1
		c-0.1,0.5,0.1,1.8-0.5,2.4c-1.8,1.8-3.7,4.5-5.9,4.9c-3.1,0.5-4.9-2.4-5.1-5.5C206.8,500.5,207,496.1,207,491.3z"/>
	<path d="M346.8,437.6c0,8.8,0,16.8,0,25.5c-4.1-1.1-7.7-2-11.4-3c0-6.5,0-12.4,0-18.8C338.9,440.2,342.5,439,346.8,437.6z"/>
	<path d="M287,551c1.7-0.5,3.4-1,5.9-1.7c0.1,2.4,0.2,4.7,0.4,6.9c-2.9,0.7-5.2,1.3-7.6,1.9c0.2,0.1,0.4,0.3,0.6,0.4
		c6.3,0,12.7,0,19.6,0c0.1,2,0.2,4,0.3,5.8c-8.1,0-15.8,0-23.5,0c-1.5-4.9-0.8-8.5,2.5-11.5l-0.1,0.1c0.7-0.7,1.4-1.4,2.1-2.1
		L287,551z"/>
	<path d="M329,510.8c0.8,5,2.1,9.9,2.2,14.9c0.1,3.4-1.7,6.7-6.1,6.3c-4.3-0.3-5.2-3.5-5.2-7.1c0-1.7,0-3.3,0-5
		C320,511.7,320.9,510.8,329,510.8L329,510.8z"/>
	<path d="M253.3,528.2c-0.1,1.6-0.2,3.7-0.4,6.3c-3.7,0-7.1,0-11.6,0c2.5-2.3,4.3-3.9,6.6-6c-2.5,0-4.6,0-6.8,0
		c-0.8-1.2-1.4-2.2-2.1-3.3c-1.4,0.5-2.9,1-4.8,1.6c0-3.3,0-6.1,0-10c8,0.4,15.6,0.8,23.3,1.2c0,0.5,0,0.9,0,1.4c-3.5,0-7,0-10.5,0
		c-1.2,0.7-2.5,1.5-4.7,2.7c2.6,0.5,4.2,0.7,5,0.9C249.4,524.8,251,526.2,253.3,528.2z"/>
	<path d="M318.1,461c-1.3,1-2.6,1.9-4.5,3.3c0-7.2,0-13.7,0-21c5.1-0.2,9.8-0.4,15.8-0.7C325.3,449.4,321.7,455.3,318.1,461
		L318.1,461z"/>
	<path d="M291.1,473c-3.9,1.7-7.2,5.3-12.1,3.9c-2.6-0.7-5.2-1.3-9-2.3c1.3-2.6,1.7-5,2.9-5.6c5.1-2.2,10.3-1.6,15.4-0.4
		c3.4,0,6.9,0,10.7,0c0,1.5,0,3,0,5.7C296.2,473.9,293.7,473.4,291.1,473c0,0,0.2-0.2,0.2-0.2L291.1,473z"/>
	<path d="M314.5,425.7c1-2.2,1.8-3.7,2.4-5.1c-1.3-1.3-2.5-2.5-3.7-3.7c0.3-0.5,0.7-1,1-1.5c1.7,0.5,3.4,0.9,5.4,1.5
		c2.6-3.7,5.6-7.7,8.6-11.8c0.4,0.2,0.7,0.4,1.1,0.5c0,6.5,0,13.1,0,20C324.1,425.7,319.6,425.7,314.5,425.7z"/>
	<path d="M252.8,457.3c-6.1-5.5-12.1-11-19.2-17.4c7.7,0,13.9,0,20.4,0c0,5.7,0,11.3,0,16.9C253.6,456.9,253.2,457.1,252.8,457.3z"
		/>
	<path d="M335.8,486.2c-3.5-0.9-6.3-1.6-9.5-2.5c0-5.6,0-10.9,0-16.8c3-0.8,5.9-1.6,9.5-2.5C335.8,471.9,335.8,478.6,335.8,486.2z"
		/>
	<path d="M243.2,489c0.1,0.8,0.2,1.6,0.3,2.8c1.3,0.2,2.7,0.3,4.8,0.5c-0.5,1.6-0.8,2.9-1.5,5.2c0.9,6.2-0.7,7.5-9.3,5.8
		c0-2.1,0-4.3,0-6.8c1.9-0.4,3.6-0.8,5.3-1.1c0-0.2,0-0.4,0-0.6c-3,0-6.1,0-9.6,0c-0.1-2.7-0.2-4.9-0.3-7.3c3.8-1.4,7-1.1,10.1,1.1
		L243.2,489z"/>
	<path d="M278.5,505.5c3.7,5.9,2.3,9.5-3.5,9.6c-3.5,0.1-7.1-0.9-10.5-2c-1-0.3-2-2.7-1.9-4c0.1-1.1,1.7-2.8,2.8-2.9
		C270,505.7,274.6,505.6,278.5,505.5z"/>
	<path d="M337.1,393c-2-0.7-3.8-1.3-5.9-2c-3,4.1-8.1,0.7-12.3,1.9c-0.3-0.4-0.6-0.7-0.9-1.1c1.9-2.9,3.8-5.8,5.7-8.7
		c0.4,0.1,0.8,0.1,1.2,0.2c0.2,1.8,0.3,3.6,0.6,6.6c0.8-2.9,1.4-4.8,1.9-6.6c2.8-0.2,5.3-0.3,8.1-0.5
		C338.5,385,338.8,386.3,337.1,393z"/>
	<path d="M346.1,498.9c-2.5,0.8-5.1,1.7-8.5,2.8c0-6.9,0-12.5,0-18.4c2.2,0,4,0,5.8,0C348.3,488.1,345.4,493.8,346.1,498.9
		L346.1,498.9z"/>
	<path d="M261.5,528.6c6.1,0,11.2,0,16.6,0c0,3.3,0,5.8,0,8.6c-5.5,0-10.8,0-17.1,0C261.1,534.6,261.3,532,261.5,528.6z"/>
	<path d="M295.1,457c4.8,0,9.5,0,15.1,0c0.3,2.8,0.6,5.3,0.9,8.3c-6,0-11.4,0-18,0C293.9,462.3,294.5,459.6,295.1,457L295.1,457z"/>
	<path d="M227.1,515c-2.8-1.4-5.5-2.8-8.3-4.2c3.1-6.4,8.1-7.4,17.3-4.2c1.6,5,0.9,6.3-3.7,7.5C230.7,514.5,228.9,514.7,227.1,515
		L227.1,515z"/>
	<path d="M350.6,517.1c-6.7,4.7-14.4,3.8-18.1-1.5c2.6-5.2,8.7-6.3,17.3-2.8C350,514,350.3,515.5,350.6,517.1z"/>
	<path d="M211.1,445.9c2.1-2,4.3-4,6.2-5.8c4,0,7.6,0,11.3,0c0.2,0.4,0.4,0.7,0.6,1.1c-4.4,3-8.7,6-13.7,9.5c-0.1,0.6-0.5,2-0.8,3.6
		c-2.2,0-4.3,0-7.5,0c1.6-2.4,2.7-4.1,3.9-5.8c1.7-0.5,3.4-1,5.1-1.6c-0.1-0.3-0.2-0.5-0.3-0.8c-1.3,0.3-2.7,0.7-4,1
		C211.6,446.8,211.4,446.3,211.1,445.9z"/>
	<path d="M291,568.8c4-0.6,8-1.3,13-2.1c0,3.9,0,7.1,0,10.1c-5,2.7-7.1-0.1-8.6-3.6c-3-0.4-5.7-0.8-8.9-1.2c-0.2-1.7-0.4-3-0.6-4.4
		c0.3-0.4,0.6-0.8,1-1.2C288.2,567.3,289.7,568.1,291,568.8L291,568.8z"/>
	<path d="M343.1,397.9c3.3,3.2,4.6,12.2,2,15.2c-1,1.1-3.7,1.9-5,1.3c-4.3-1.9-4.2-13.5-0.1-15.8C341,398.1,342.2,398.1,343.1,397.9
		z"/>
	<path d="M220.8,434.4c5.5-3.8,11-7.5,17.5-11.9c0,5.1,0,8.9,0,13.2c-6,0-11.5,0-17,0C221.1,435.3,221,434.9,220.8,434.4z"/>
	<path d="M299.2,477.9c0,5.2,0,9.9,0,15c-2.5,0.2-4.1,0.4-7,0.6c-0.5-5.4-1-10.3-1.5-15.6C294,477.9,296.4,477.9,299.2,477.9z"/>
	<path d="M264,494.1c1.9-1,3.8-1.9,6.6-3.3c0,4.3,0,8.1,0,12.2c-5.2,0-10.7,0-17.6,0C257.4,499.5,260.8,496.7,264,494.1
		C264.1,494,264,494.1,264,494.1z"/>
	<path d="M281.2,492.7c3.1,0.2,4.7,0.3,7,0.5c0,5.1,0,9.8,0,15.2c-2.7-0.2-4.5-0.3-7-0.5C281.2,502.8,281.2,498.1,281.2,492.7z"/>
	<path d="M312.7,492.3c0,5,0,8.5,0,12.4c-5.4,0-10.4,0-15.4,0c-0.2-0.4-0.4-0.9-0.7-1.3C301.6,499.9,306.7,496.5,312.7,492.3z"/>
	<path d="M221,449.9c1.5,0.1,2.9,0.1,5.3,0.3c0,5,0,9.7,0,15.2c-2.7-0.2-4.7-0.4-6.7-0.6C218.3,459.3,217.2,454.5,221,449.9z"/>
	<path d="M207.5,457.3c2.4-0.6,4.6-1.1,7.4-1.8c0,5.7,0,10.8,0,16.5c-2.6-0.6-4.8-1.2-7.4-1.8C207.5,465.9,207.5,461.7,207.5,457.3z
		"/>
	<path d="M228.6,459.6c0-5,0-9.7,0-14.9c2.1,0.2,4,0.4,6.7,0.6c0,4.9,0,9.5,0,14.3C232.5,459.6,230.8,459.6,228.6,459.6z"/>
	<path d="M331.2,430.3c0-3.7,0-7.1,0-11.1c4,0,7.9,0,11.7,0C342.2,426.6,337.5,431.3,331.2,430.3z"/>
	<path d="M252,420.5c-3.4-0.2-6.8-0.4-10.6-0.6c0-5.1,0-10,0-14.8c0.4-0.3,0.8-0.5,1.2-0.8c3.5,4.9,6.9,9.8,10.4,14.7
		C252.6,419.5,252.3,420,252,420.5z"/>
	<path d="M271,487.9c0.2-2.8,0.5-5.6,0.7-8.7c3.6,0,7.2,0,11.6,0c-1.3,3.6-2.5,6.7-4,10.8c-2.6-0.1-5.6-0.3-8.6-0.4
		C270.8,489,270.9,488.5,271,487.9z"/>
	<path d="M238.8,419.6c-5.9,0-10.5,0-16.3,0c1-2.7,1.3-6.3,2.5-6.6c3.3-0.9,7.2-0.9,10.5-0.1C236.9,413.2,237.5,416.7,238.8,419.6z"
		/>
	<path d="M332.7,532.3c0.4-4.2,0.7-7,0.9-10.1c3.4,0,7,0,11.4,0c-1.2,3.4-2.3,6.5-3.6,10.1C338.7,532.3,335.6,532.3,332.7,532.3z"/>
	<path d="M227.1,516.9c1.4,0.2,2.9,0.4,4.6,0.7c0,3.1,0,5.8,0,9c-2.7,0-5.2,0-8.3,0c-0.1-2-0.2-3.9-0.3-6.1
		c-0.8-0.1-1.7-0.3-2.8-0.5c0-1.4,0-2.8,0-4.9c2.4,0,4.7,0,6.9,0l-0.1-0.1C227.1,515.6,227.1,516.3,227.1,516.9
		C227.1,516.9,227.1,516.9,227.1,516.9z"/>
	<path d="M249.9,460.8c-3.4,0-7.4,0-12,0c0-4.1,0-8.1,0-13C242.2,452.5,246.1,456.7,249.9,460.8z"/>
	<path d="M329.2,349.7c1.6,0.1,1.6,0.1,1.6,0.1c0,6.7,1,2.9,1,9.8c-1.2,0.1-2.6,0.3-4.5,0.5C327.4,353.2,329.2,357,329.2,349.7z"/>
	<path d="M236,374.3c1.8,0.1,3.3,0.2,5.1,0.3c0,7.7,0,15.1,0,23.1c-1.4,0.2-3,0.4-5.1,0.6C236,390.3,236,382.8,236,374.3z"/>
	<path d="M351.9,504.1c3.5,0.2,7,0.4,11.6,0.6c1.2-0.3,3.7-0.8,6.9-1.5c-4.2,6.5-11.7,9.6-18.4,7.9c0-2.3,0-4.7,0-7.1L351.9,504.1z"
		/>
	<path d="M282,512c4.2,0,7.8,0,11.8,0c0.5,2.1,1,4.1,1.6,6.6c-5.3,0-9.9,0-15.4,0C280.8,516.2,281.4,514,282,512z"/>
	<path d="M262.5,527.5c-2.6,0.5-4.8,0.8-7.6,1.3c-0.3-2.4-0.5-4.4-0.7-6.6c1.9-0.4,3.3-0.7,4.7-1c0.2-1.1,0.4-2.2,0.8-3.8
		c2.6-0.2,5.2-0.4,8.2-0.6c0,1.9,0,3.2,0,4.7c-1.7,0.3-3.1,0.6-4.8,1C262.9,523.9,262.7,525.3,262.5,527.5z"/>
	<path d="M232.1,469c0.5,2.4,1,4.4,1.5,6.8c-5.3,0-10,0-15.5,0c0.8-2.6,1.5-4.7,2.2-6.8C224.2,469,227.8,469,232.1,469z"/>
	<path d="M267.1,473.1c0,4.2,0,7.7,0,11.6c-2.1,0.5-4,1-6.6,1.7c0-5.3,0-9.9,0-15.3C262.8,471.7,264.9,472.4,267.1,473.1z"/>
	<path d="M330.7,543.7c-4.7,0-8.7,0-14.1,0c2.8-2.3,4.7-4,7-5.9c0.1-1.1,0.3-2.5,0.4-4c2.2,0.4,4.2,0.8,6.7,1.2
		C330.7,537.5,330.7,540.3,330.7,543.7z"/>
	<path d="M338.7,342.8c8.8,1.8,16.5,4.8,22.4,11.4c-7.3-2.3-14.6-4.6-22.4-7C338.7,346.1,338.7,344.8,338.7,342.8z"/>
	<path d="M192.3,513.1c4.2-2.8,8.4-5.7,13.4-9c0,4.1,0,7,0,10.3c-4.6,0-8.8,0-12.9,0C192.6,513.9,192.4,513.5,192.3,513.1z"/>
	<path d="M269,457c4.7-2.3,9.4-4.6,14.8-7.1c0,3.3,0,6,0,9c-4.8,0-9.7,0-14.9,0C268.9,458.4,269,457.7,269,457L269,457z"/>
	<path d="M301.3,442.1c2.7,0,4.8,0,7.4,0c0,3.5,0,6.9,0,11c-2.5-0.2-4.8-0.4-7.4-0.7C301.3,448.7,301.3,445.7,301.3,442.1z"/>
	<path d="M280.6,533.3c0-4,0-7.9,0-12.1c3.4,0,6.3,0,10.4,0c-3.4,4.8-6.2,8.8-9,12.7C281.5,533.7,281.1,533.5,280.6,533.3z"/>
	<path d="M326.6,427.5c0,2.3,0,3.8,0,5.9c-4,0-7.6,0-12,0c0.3-2,0.6-3.7,0.9-5.9C319.3,427.5,322.6,427.5,326.6,427.5z"/>
	<path d="M243.1,426c1.8,2.7,3.7,5.5,6,9c-3.2,0-5.6,0-8.4,0c0-3.2,0-6.3,0-10.3c1.4-0.9,3.3-2.1,5.4-3.5
		C248.2,426.1,245.1,425.6,243.1,426l-0.1-0.1L243.1,426z"/>
	<path d="M314.4,495c0-3.9,0-6.1,0-9.8c3.6,1.1,6.7,1.8,9.7,3.1c0.6,0.2,0.6,3.7,0.2,3.8C321.4,493.2,318.3,493.9,314.4,495z"/>
	<path d="M219,478.1c3.5,0,6.3,0,10.2,0c-3.3,4.8-6,8.8-8.8,12.8c-0.5-0.2-1-0.4-1.4-0.5C219,486.4,219,482.4,219,478.1z"/>
	<path d="M270.6,517.2c2.4,0,4.4,0,6.9,0c0,3.2,0,6.2,0,9.8c-2.4-0.2-4.4-0.3-6.9-0.5C270.6,523.3,270.6,520.6,270.6,517.2z"/>
	<path d="M208.5,473.4c2.1,0.3,3.5,0.4,6.4,0.8c-0.3,3.4-0.2,6.7-1,9.8c-0.3,1.2-2.9,1.7-5.4,3.1
		C208.5,481.7,208.5,477.9,208.5,473.4z"/>
	<path d="M293,524.3c0,4,0,8.1,0,12.5c-3.2,0-6,0-10.2,0c3.4-4.8,6.2-8.9,9-13C292.2,524,292.6,524.1,293,524.3z"/>
	<path d="M324.6,381.3c0.6-3.7,1.1-6.4,1.7-10c2,0.3,4.6,0,5,0.8c1.3,2.4,1.7,5.3,2.6,8.7C330.4,381,328,381.1,324.6,381.3z"/>
	<path d="M231,493.6c-3.4,0-5.9,0-9.4,0c3.1-4.5,5.8-8.3,8.4-12.1c0.3,0.1,0.7,0.3,1,0.4C231,485.7,231,489.4,231,493.6z"/>
	<path d="M269.7,466.2c-0.5-5.3,2.5-6.4,6-6.2c3.5,0.2,6.5,1.5,5.2,7.2C277.1,466.8,273.5,466.5,269.7,466.2z"/>
	<path d="M332.1,415.9c0-5.6,0-11.2,0-16.9c0.4-0.2,0.8-0.4,1.3-0.6c0.8,0.9,2.4,2,2.2,2.7c-0.9,5,1.7,10.5-1.5,15.1
		C333.5,416.1,332.8,416,332.1,415.9z"/>
	<path d="M269.1,456.9c-1.5,0.6-3,1.2-5.3,2.1c0.1-3,0.2-5.5,0.4-8.5c4.2,0,7.8,0,12.5,0C273.8,453,271.4,455,269.1,456.9
		L269.1,456.9z"/>
	<path d="M308,468.3c0,3.9,0,7.4,0,11.1c-4.1,1.4-5.7-0.6-6.3-4C301,471.1,303,468.6,308,468.3z"/>
	<path d="M277.9,540.9c0,3.8,0,7.4,0,11.3c-1.9-0.2-3.3-0.4-4.5-0.5C269.9,545,271.5,541,277.9,540.9z"/>
	<path d="M326.8,487.1c3.1,0,5.8,0,9.1,0c0.2,2.8,0.4,5.3,0.5,7.8C331.3,496.3,329.4,494.8,326.8,487.1z"/>
	<path d="M345.9,424.7c0,3.5,0,7,0,10.9c-2.7,0-5.3,0-9.3,0c3.1-4.4,5.5-7.9,8-11.3C345,424.4,345.5,424.6,345.9,424.7z"/>
	<path d="M262,454.5c0,2.8,0,5.7,0,9.1c-2.2,0-4.2,0-6.2,0C254.2,456.4,256.1,453.6,262,454.5z"/>
	<path d="M320.3,411c0-5.1,0-8.6,0-12.6c2.9,0,5.4,0,9.4,0C326.3,402.9,323.7,406.4,320.3,411z"/>
	<path d="M338.9,478c2.3-3.1,4.5-6.2,6.8-9.2c0.4,0.1,0.7,0.3,1.1,0.4c0,3.3,0,6.6,0,10.2c-2.5,0-4.8,0-7.1,0
		C339.4,478.9,339.1,478.4,338.9,478z"/>
	<path d="M334.2,363.2c0.3,1.1,0.7,2.3,1.4,4.7c-4,0.3-7.4,0.5-11.4,0.8c0.1-2.5,0.2-3.8,0.3-5.5
		C327.9,363.2,330.8,363.2,334.2,363.2z"/>
	<path d="M289,489.1c-2.5,0.4-4.9,0.9-7.2,1.3c-0.3-0.4-0.6-0.8-1-1.2c2.5-3.6,5-7.2,7.5-10.8c0.5,0.1,1,0.3,1.5,0.4
		C289.6,482,289.3,485.3,289,489.1z"/>
	<path d="M255.8,488.7c-1.3,0.1-2.6,0.2-4.3,0.4c0-3.7,0-7.1,0-10.6C257.1,478.8,258.2,481.6,255.8,488.7z"/>
	<path d="M317.6,531.7c-1.4,0.1-2.7,0.2-4.2,0.3c0-3.7,0-7,0-10.4C318.8,521.8,320,524.6,317.6,531.7z"/>
	<path d="M318.1,461.1c3.7-1,7.5-2,11.6-3.1c0.2,2.6,0.3,3.8,0.5,5.3c-4.2,0.4-8.2,0.8-12.7,1.2
		C317.7,463.3,317.9,462.2,318.1,461.1L318.1,461.1z"/>
	<path d="M295.2,456.9c-2.6,0-5.2,0-8.3,0c0-2.3,0-4.1,0-7c3,0.6,5.3,1.1,7.9,1.6C294.8,453.8,295,455.4,295.2,456.9L295.2,456.9z"
		/>
	<path d="M319.2,474.9c-1.1,0.2-2.2,0.3-3.8,0.6c-0.1-2.6-0.2-4.8-0.3-7.7c2.6-0.4,4.9-0.7,7.2-1C325,471.5,320.3,472.5,319.2,474.9
		L319.2,474.9z"/>
	<path d="M272.9,492.5c2.6,0,4.7,0,8.3,0c-2.9,3.9-5.1,7-7.3,10c-0.3-0.1-0.7-0.3-1-0.4C272.9,499.1,272.9,496.2,272.9,492.5z"/>
	<path d="M322.1,503c1.3-0.6,2.7-1.1,4.7-2c0.1,2.7,0.2,5,0.4,7.7c-3.9,0-7.2,0-11.2,0c1.2-1.5,2.2-2.7,3.2-3.8c0,0-0.1,0.1-0.1,0.1
		c0.7-0.4,1.4-0.7,2.1-1.1c0,0-0.1,0.1-0.1,0.1C321.4,503.7,321.8,503.3,322.1,503L322.1,503z"/>
	<path d="M280.7,546.2c0.2-2.8,0.3-4.7,0.5-7.3c2.6,0.1,5,0.3,7.6,0.4c0,2.2,0,3.7,0,5.8C286.3,545.5,283.8,545.8,280.7,546.2z"/>
	<path d="M249.1,423c1.5-0.3,2.7-0.5,4.5-0.9c0,3.5,0,6.5,0,10.2c-1.6-0.3-2.9-0.6-4.5-0.9C249.1,428.6,249.1,426.1,249.1,423z"/>
	<path d="M321,533.4c-0.3,2.1-0.5,3.5-0.8,5.2c-2,1.4-3.9,2.7-5.9,4.1c-0.5-0.2-0.9-0.5-1.4-0.7c0.8-2.8,1.7-5.5,2.6-8.5
		C317.2,533.4,318.8,533.4,321,533.4z"/>
	<path d="M259.6,544.7c0-1.7,0-2.9,0-4.3c3.5,0,6.7,0,10.3,0c0,0.9,0,2.4,0,4.3C266.5,544.7,263.1,544.7,259.6,544.7z"/>
	<path d="M238.9,401.8c0,3.5,0,5.6,0,8c-3.4,0-6.4,0-9.5,0c-0.2-0.3-0.4-0.7-0.6-1C232,406.6,235,404.5,238.9,401.8z"/>
	<path d="M221.5,430.2c0-3.4,0-5.3,0-7.7c3.1,0,5.9,0,8.7,0c0.2,0.4,0.4,0.9,0.6,1.3C228,425.7,225.3,427.6,221.5,430.2z"/>
	<path d="M352.1,504c-1.4,0.3-2.8,0.6-4.4,1c-0.5-2.1-1-4.1-1.5-6.1L346,499c3.6-0.4,7.2-0.9,10.9-1.3c0.3,0.5,0.6,1,0.9,1.5
		c-1.9,1.6-3.9,3.2-5.8,4.8C351.9,504.1,352.1,504,352.1,504z"/>
	<path d="M329.1,510.9c0.9-2.7,1.8-5.3,2.9-8.6c1.3-0.1,3-0.1,5.3-0.3c-0.4,2.2-0.7,3.9-1.1,6.4C333.9,509.2,331.5,510,329.1,510.9
		L329.1,510.9z"/>
	<path d="M319.1,475c3.8,2.2,1.4,5.3,1.8,8.5c-2.2,0-3.7,0-5.7,0c-0.3-1.6-0.6-3.1-0.9-4.6C316.2,477.4,317.7,476.2,319.1,475
		L319.1,475z"/>
	<path d="M323.8,553.8c-2.3-0.5-3.8-0.8-5-1c-1.8-5.9-0.8-7.5,5-7.5C323.8,547.8,323.8,550.3,323.8,553.8z"/>
	<path d="M251.3,498.5c0.8-2.5,1.6-5.1,2.6-8c1.5,0,3.2,0,4.9,0c0.3,0.4,0.7,0.8,1,1.2c-2.3,2.6-4.6,5.2-6.9,7.9
		C252.3,499.2,251.8,498.9,251.3,498.5z"/>
	<path d="M246.9,509.8c0,2.1,0,3.3,0,4.9c-3,0-5.7,0-8.7,0c0-1.5,0-2.7,0-4.5C241.1,510.1,243.7,509.9,246.9,509.8z"/>
	<path d="M323.1,440.8c-3,0-5.6,0-8.6,0c0-1.4,0-2.7,0-4.5c2.8,0,5.4,0,8.4,0C322.9,437.7,323,439.1,323.1,440.8z"/>
	<path d="M298.8,445c-0.1,1.2-0.2,2.4-0.4,3.6c-2.9,0-5.4,0-7.9,0C290.6,443.9,292.3,443.2,298.8,445z"/>
	<path d="M314.7,401.5c5,2.8,5.2,5.7,0.3,9.1C312.4,407.6,313,404.7,314.7,401.5z"/>
	<path d="M330,447.6c0,2.6,0,5.1,0,8.4c-2.1,0.2-4.1,0.3-7.5,0.6c2.7-3.9,4.6-6.6,6.5-9.4C329.3,447.4,329.6,447.5,330,447.6z"/>
	<path d="M236.3,502.8c-2.8,0-4.9,0-7.4,0c1.1-3.6,1.9-6.9,7.1-6.9C236.1,498.3,236.2,500.2,236.3,502.8z"/>
	<path d="M290.3,545.8c2.1-3.4,2.4-7.4,7.6-6.7c0,2.3,0,4.3,0,6.7C295.5,545.8,293.3,545.8,290.3,545.8z"/>
	<path d="M318.9,511.6c0,2.5,0,5.1,0,7.8c-2.1,0-3.9,0-7,0c2.3-3.4,4-5.9,5.7-8.4C318.1,511.1,318.5,511.4,318.9,511.6z"/>
	<path d="M250.4,476.2c2.1-3.4,3.7-5.9,5.3-8.5c0.3,0.1,0.7,0.2,1,0.3c0,2.6,0,5.1,0,8.2C255,476.2,253.1,476.2,250.4,476.2z"/>
	<path d="M190.3,511.1c0-3.1,0-4.4,0-6.4c2.8-0.3,5.5-0.6,8.3-0.8c0.2,0.4,0.4,0.9,0.5,1.3C196.5,506.9,193.9,508.7,190.3,511.1z"/>
	<path d="M319.1,504.9c-1.5,0.5-3,1.1-4.9,1.8c0-2.1,0-3.8,0-5.9c2.7,0,5.3,0,8.3,0c-0.2,0.7-0.3,1.5-0.5,2.2l0.1-0.1
		c-0.4,0.4-0.7,0.7-1.1,1.1c0,0,0.1-0.1,0.1-0.1C320.5,504.3,319.8,504.7,319.1,504.9L319.1,504.9z"/>
	<path d="M253.5,508.9c-0.2-1.2-0.5-2.2-0.8-3.9c2.9-0.4,5.4-0.7,8.5-1.1c-0.1,2-0.2,3.4-0.2,4.9
		C258.4,508.9,256.3,508.9,253.5,508.9z"/>
	<path d="M338.3,472.6c0-2.5,0-5,0-7.8c1.9,0,3.6,0,6.6,0c-2.2,3.4-3.8,5.9-5.4,8.4C339.1,472.9,338.7,472.7,338.3,472.6z"/>
	<path d="M304.7,549.8c0,1.7,0,2.8,0,4.2c-3.2-0.2-7.1,2.4-9-3.8C299.1,550.1,301.8,549.9,304.7,549.8z"/>
	<path d="M285.1,552.9c-1.3,0.3-2.5,0.5-4.3,0.9c0-1.8,0-3.4,0-5.3c2.7,0,4.9,0,7.6,0c-0.6,1.1-1,1.7-1.4,2.4l0.1-0.1
		C286.5,551.6,285.8,552.3,285.1,552.9C285.1,553,285.1,552.9,285.1,552.9z"/>
	<path d="M217.5,512.1c0.2,1.8,0.3,2.9,0.4,4.4c-3.5-0.5-6.6-0.9-9.7-1.3c0-0.7,0.1-1.3,0.1-2C211.1,512.9,213.9,512.5,217.5,512.1z
		"/>
	<path d="M364.9,496.9c0,2.7,0,4.2,0,5.9c-2.6,0-5,0-7.4,0c-0.2-0.3-0.4-0.6-0.6-0.8C359.4,500.4,361.8,498.9,364.9,496.9z"/>
	<path d="M345.5,398.4c2.3-3.2,3.8-5.3,5.2-7.3c0.3,0.1,0.7,0.2,1,0.3c0,2.2,0,4.3,0,7C350.2,398.4,348.6,398.4,345.5,398.4z"/>
	<path d="M309.3,399c-0.1-2.1-0.3-3.2-0.3-4.4c0-1,0.2-1.9,0.4-4.4c2.3,3,3.9,5,6.1,7.9C312.9,398.5,311.3,398.7,309.3,399z"/>
	<path d="M325.6,496.3c2.9,0.4,5.8,0.9,8.9,1.3c0.5,4.1,0.5,4.1-8.9,0.6C325.6,497.6,325.6,497,325.6,496.3z"/>
	<path d="M315.7,496.8c6-2.7,7.4-2.5,8.2,2.3c-2.9-0.2-5.7-0.4-8.4-0.6C315.6,497.9,315.7,497.4,315.7,496.8z"/>
	<path d="M304.2,490c-1-2.1-2-4.3-3.4-7.3c3.3,0,5,0,7.1,0c-0.7,1.7-1.3,3-1.8,4.3l0.1-0.1C305.5,488,304.8,489,304.2,490L304.2,490
		z"/>
	<path d="M333.2,438.9c-1.4,4.8-4.9,2.7-7.8,3C326,437.1,327.1,436.7,333.2,438.9z"/>
	<path d="M258.3,514.1c-2.4,0-4.8,0-7.3,0C252.5,510.5,253.7,510.3,258.3,514.1z"/>
	<path d="M229.5,461.2c1.6,1.1,3.2,2.2,4.8,3.4c-0.2,0.6-0.5,1.1-0.7,1.7c-1.5,0.2-3,0.5-5.1,0.8c-0.2-1.8-0.3-3.1-0.4-4.5
		C228.5,462.1,229,461.7,229.5,461.2z"/>
	<path d="M289.4,465c-1.8-0.1-2.8-0.1-4-0.2c0-2.7-1.9-5.7,3.3-6.7C288.9,460.3,289.2,462.3,289.4,465z"/>
	<path d="M349.8,509.5c-2.8,0-5.7,0-8.7,0C343,505.9,345.5,505.7,349.8,509.5z"/>
	<path d="M290.1,510.2c0-2.1,0-3.4,0-6.1c2.5,1.2,4.2,2,5.9,2.8c-0.1,0.6-0.3,1.2-0.4,1.9C293.9,509.3,292.2,509.7,290.1,510.2z"/>
	<path d="M302.3,494.8c-2.1,2.8-3.4,4.4-4.7,6.1c-0.3-0.1-0.6-0.3-0.9-0.4c0-1.8,0-3.5,0-5.7C298.2,494.8,299.5,494.8,302.3,494.8z"
		/>
	<path d="M306.1,487c0.8,1.8,1.6,3.6,2.8,6.2c-2.5,0.5-3.8,0.7-5.9,1.1c0.5-1.9,0.9-3.1,1.2-4.2c0,0-0.1,0.1-0.1,0.1
		C304.8,489,305.5,488,306.1,487L306.1,487z"/>
	<path d="M255.5,530.7c1.4,0.1,2.3,0.2,3.4,0.3c0,2,0,3.7,0,5.8c-1.2,0-2.2,0-3.4,0C255.5,534.7,255.5,532.9,255.5,530.7z"/>
	<path d="M334.9,435.5c-2,0-4.1,0-6.3,0C330.4,431.9,331.4,431.7,334.9,435.5z"/>
	<path d="M294.4,495.3c0,1.9,0,3.6,0,5.7C290.5,498,290.5,497.1,294.4,495.3z"/>
	<ellipse cx="284.1" cy="448" rx="6.1" ry="0.8"/>
	<path d="M250.8,506.7c-2.8,0-5.6,0-8.4,0c0-0.4,0-0.7,0-1.1c2.8,0,5.6,0,8.4,0C250.8,506,250.8,506.3,250.8,506.7z"/>
	<path d="M269.5,469.7c-1.6,0.1-3.2,0.2-4.8,0.2c-0.1-0.6-0.2-1.3-0.2-1.9c1.6-0.2,3.3-0.4,4.9-0.7
		C269.4,468.2,269.4,468.9,269.5,469.7z"/>
	<path d="M264.1,494c-0.7-0.9-1.3-1.8-2-2.7c0.6-0.2,1.1-0.4,1.7-0.6C263.9,491.8,264,492.9,264.1,494L264.1,494z"/>
	<path d="M341.8,502.6c0,0.8,0,1.7,0,2.5c-0.3,0-0.7,0-1,0c0-0.8,0-1.7,0-2.5C341.2,502.6,341.5,502.6,341.8,502.6z"/>
	<path d="M311.7,513.1c-0.1-0.8-0.3-1.6-0.4-2.3c0.4-0.1,0.7-0.1,1.1-0.2c0.1,0.8,0.3,1.6,0.4,2.3
		C312.5,512.9,312.1,513,311.7,513.1z"/>
	<path d="M186.1,369.9c-0.5,0.4-1,0.9-1.4,1.3c-0.1-0.2-0.2-0.4-0.3-0.6C184.9,370.4,185.6,370.2,186.1,369.9L186.1,369.9z"/>
	<path d="M410.2,414.8C410.2,414.8,410.2,414.9,410.2,414.8C410.1,414.9,410.2,414.8,410.2,414.8z"/>
	<path d="M411.1,417c-0.3-0.7-0.6-1.5-0.9-2.2c0,0-0.1,0.1-0.1,0.1C410.4,415.6,410.7,416.4,411.1,417
		C411,417.1,411.1,417,411.1,417z"/>
	<path d="M167.2,510L167.2,510L167.2,510z"/>
</g>
<polygon points="249.3,382.7 249.1,387.2 229,387.2 228.5,382.7 "/>
</svg>
